<svg xmlns="http://www.w3.org/2000/svg">
    <symbol id="arrow_right" viewBox="0 0 24 24">
        <path d="M23.12 9.91 19.25 6a1 1 0 0 0-1.42 0 1 1 0 0 0 0 1.41L21.39 11H1a1 1 0 0 0-1 1 1 1 0 0 0 1 1h20.45l-3.62 3.61a1 1 0 0 0 0 1.42 1 1 0 0 0 1.42 0l3.87-3.88a3 3 0 0 0 0-4.24Z"/>
    </symbol>
    <symbol id="arrow_top-right" viewBox="0 0 24 24">
        <path d="M23.12 9.91 19.25 6a1 1 0 0 0-1.42 0 1 1 0 0 0 0 1.41L21.39 11H1a1 1 0 0 0-1 1 1 1 0 0 0 1 1h20.45l-3.62 3.61a1 1 0 0 0 0 1.42 1 1 0 0 0 1.42 0l3.87-3.88a3 3 0 0 0 0-4.24Z"/>
    </symbol>
    <symbol id="facebook" viewBox="0 0 24 24">
        <path d="M24 12.073c0 5.989-4.394 10.954-10.13 11.855v-8.363h2.789l.531-3.46h-3.32V9.86c0-.947.464-1.869 1.95-1.869h1.509V5.045s-1.37-.234-2.679-.234c-2.734 0-4.52 1.657-4.52 4.656v2.637H7.091v3.46h3.039v8.363C4.395 23.025 0 18.061 0 12.073c0-6.627 5.373-12 12-12s12 5.372 12 12z"/>
    </symbol>
    <symbol id="instagram" viewBox="0 0 24 24">
          <path d="M12 2.162c3.204 0 3.584.012 4.849.07 1.308.06 2.655.358 3.608 1.311.962.962 1.251 2.296 1.311 3.608.058 1.265.07 1.645.07 4.849s-.012 3.584-.07 4.849c-.059 1.301-.364 2.661-1.311 3.608-.962.962-2.295 1.251-3.608 1.311-1.265.058-1.645.07-4.849.07s-3.584-.012-4.849-.07c-1.291-.059-2.669-.371-3.608-1.311-.957-.957-1.251-2.304-1.311-3.608-.058-1.265-.07-1.645-.07-4.849s.012-3.584.07-4.849c.059-1.296.367-2.664 1.311-3.608.96-.96 2.299-1.251 3.608-1.311 1.265-.058 1.645-.07 4.849-.07M12 0C8.741 0 8.332.014 7.052.072 5.197.157 3.355.673 2.014 2.014.668 3.36.157 5.198.072 7.052.014 8.332 0 8.741 0 12c0 3.259.014 3.668.072 4.948.085 1.853.603 3.7 1.942 5.038 1.345 1.345 3.186 1.857 5.038 1.942C8.332 23.986 8.741 24 12 24c3.259 0 3.668-.014 4.948-.072 1.854-.085 3.698-.602 5.038-1.942 1.347-1.347 1.857-3.184 1.942-5.038.058-1.28.072-1.689.072-4.948 0-3.259-.014-3.668-.072-4.948-.085-1.855-.602-3.698-1.942-5.038C20.643.671 18.797.156 16.948.072 15.668.014 15.259 0 12 0z"/><path d="M12 5.838a6.162 6.162 0 1 0 0 12.324 6.162 6.162 0 0 0 0-12.324zM12 16a4 4 0 1 1 0-8 4 4 0 0 1 0 8z"/><circle cx="18.406" cy="5.594" r="1.44"/>
    </symbol>
    <symbol id="twitter" viewBox="0 0 24 24">
        <path d="M21.543 7.104c.014.211.014.423.014.636 0 6.507-4.954 14.01-14.01 14.01v-.004A13.936 13.936 0 0 1 0 19.539a9.881 9.881 0 0 0 7.287-2.041 4.93 4.93 0 0 1-4.6-3.42 4.926 4.926 0 0 0 2.223-.084A4.924 4.924 0 0 1 .96 9.167v-.062a4.88 4.88 0 0 0 2.235.616A4.927 4.927 0 0 1 1.67 3.148a13.982 13.982 0 0 0 10.148 5.145 4.929 4.929 0 0 1 8.391-4.491 9.873 9.873 0 0 0 3.127-1.195 4.947 4.947 0 0 1-2.165 2.724A9.89 9.89 0 0 0 24 4.555a10.008 10.008 0 0 1-2.457 2.549z"/>
    </symbol>
</svg>
